<svg version="1.1" id="Layer_1" xmlns="http://www.w3.org/2000/svg" xmlns:xlink="http://www.w3.org/1999/xlink"
	 height="70"
   viewBox="50 150 250 250"
   width="172">
<path fill="none" opacity="1.000000" stroke="none" 
	d="
M465.000000,513.000000 
	C310.037689,513.000000 155.575378,513.000000 1.056538,513.000000 
	C1.056538,342.412689 1.056538,171.825333 1.056538,1.118992 
	C171.545624,1.118992 342.091339,1.118992 512.818542,1.118992 
	C512.818542,171.666504 512.818542,342.333252 512.818542,513.000000 
	C497.158600,513.000000 481.329315,513.000000 465.000000,513.000000 
M242.499878,235.776733 
	C297.605560,235.776733 352.711243,235.776733 407.815918,235.776733 
	C407.815918,232.895096 407.815918,230.500580 407.815918,228.314774 
	C306.762451,228.314774 206.039490,228.314774 105.463875,228.314774 
	C105.463875,230.973404 105.463875,233.221115 105.463875,236.019882 
	C127.341148,236.019882 148.881683,236.019882 170.315048,236.019882 
	C170.315048,240.512634 170.315048,244.438889 170.315048,248.904022 
	C164.911011,248.904022 159.847015,248.904022 154.908859,248.904022 
	C154.908859,251.699463 154.908859,253.940186 154.908859,256.768707 
	C160.332291,256.768707 165.393723,256.768707 170.601440,256.768707 
	C170.601440,262.685120 170.280075,268.029633 170.683029,273.318970 
	C171.183304,279.885651 175.088242,284.244934 181.507004,285.265137 
	C185.307434,285.869202 189.282333,285.375641 193.146973,285.375641 
	C193.146973,282.574036 193.146973,280.357574 193.146973,277.892120 
	C190.003967,277.892120 187.191177,277.928131 184.379715,277.882782 
	C181.057877,277.829254 178.837173,276.149658 178.692291,272.825256 
	C178.456268,267.409851 178.628586,261.976654 178.628586,256.158447 
	C184.950409,256.158447 190.543259,256.158447 196.100067,256.158447 
	C196.100067,253.511154 196.100067,251.301132 196.100067,248.597015 
	C190.161530,248.597015 184.585266,248.597015 178.936554,248.597015 
	C178.936554,244.144455 178.936554,240.203247 178.936554,235.778473 
	C199.934692,235.778473 220.717239,235.778473 242.499878,235.776733 
M348.242737,277.233093 
	C350.396667,279.638916 352.112854,283.251099 354.787567,284.221619 
	C362.439331,286.998016 370.334015,287.082245 376.159271,283.490723 
	C379.891602,284.682129 382.620117,285.553131 386.089783,286.660706 
	C386.089783,276.818146 386.426422,268.174438 385.976379,259.571899 
	C385.653809,253.404846 380.994049,249.043961 374.830841,248.765900 
	C367.249115,248.423813 359.640228,248.684235 351.785583,248.684235 
	C351.785583,251.228424 351.785583,253.491043 351.785583,256.197205 
	C358.497955,256.197205 365.121979,256.188477 371.745972,256.200409 
	C375.866943,256.207855 378.266418,257.848755 377.907532,262.122223 
	C377.392731,262.495605 377.264832,262.669464 377.135620,262.670441 
	C371.476593,262.713928 365.815582,262.660400 360.158783,262.790985 
	C351.174042,262.998383 347.347473,267.392242 348.242737,277.233093 
M287.709503,258.333008 
	C289.031555,255.350845 290.353577,252.368698 291.827576,249.043732 
	C288.614624,249.043732 285.979767,249.043732 283.225189,249.043732 
	C279.268707,257.549530 275.342499,265.990173 271.022644,275.277130 
	C267.638794,267.685211 264.772186,261.161682 261.827759,254.673416 
	C258.866974,248.149170 258.833069,248.164566 250.479645,249.419968 
	C255.823318,261.136353 260.995941,272.768005 266.463837,284.259216 
	C267.805511,287.078857 274.939423,286.084015 276.347351,283.044556 
	C280.052521,275.045929 283.676147,267.009521 287.709503,258.333008 
M216.052673,285.602631 
	C216.568390,284.388000 217.460190,283.194275 217.528992,281.954834 
	C217.731903,278.299866 217.622864,274.626770 217.610794,270.960846 
	C217.579498,261.446930 222.982559,256.146820 232.741791,256.137543 
	C235.507614,256.134949 238.273438,256.137146 241.126312,256.137146 
	C241.126312,253.522293 241.126312,251.412048 241.126312,249.347519 
	C230.404266,247.248291 226.752747,247.929642 217.752991,253.715805 
	C217.472519,252.075119 217.208038,250.528030 216.944748,248.987839 
	C214.366165,248.987839 212.099319,248.987839 209.809052,248.987839 
	C209.809052,261.317108 209.809052,273.346191 209.809052,285.616211 
	C211.892136,285.616211 213.546387,285.616211 216.052673,285.602631 
M105.696083,251.282730 
	C105.696083,262.702393 105.696083,274.122070 105.696083,285.458923 
	C108.639603,285.458923 111.050743,285.458923 113.869034,285.458923 
	C113.869034,280.332672 113.888374,275.542847 113.864861,270.753235 
	C113.820801,261.779083 119.063240,256.358185 128.142899,256.098938 
	C131.064224,256.015503 133.989975,256.085815 137.062836,256.085815 
	C137.062836,253.727402 137.062836,251.460495 137.062836,249.019775 
	C128.730118,248.056885 120.629654,247.102478 113.988724,254.620407 
	C113.547157,252.221130 113.237778,250.540070 112.767677,247.985779 
	C110.164314,248.891342 107.934288,249.667038 105.696083,251.282730 
M311.692383,249.345825 
	C309.258087,249.128738 306.823792,248.911636 304.366547,248.692505 
	C304.366547,261.337555 304.366547,273.552399 304.366547,285.631226 
	C307.056122,285.631226 309.333679,285.631226 312.024261,285.631226 
	C312.024261,280.246918 312.043793,275.118347 312.019257,269.990021 
	C311.989746,263.831909 314.915436,259.183777 320.803497,257.240021 
	C323.568634,256.327179 326.679962,256.129242 329.627228,256.166992 
	C337.251923,256.264618 337.389252,256.218262 335.398224,248.780472 
	C327.340393,249.075577 318.587189,246.245392 311.878418,255.703583 
	C311.878418,252.756012 311.878418,251.437546 311.692383,249.345825 
M407.989258,272.487427 
	C407.989258,264.732025 407.989258,256.976593 407.989258,249.213455 
	C405.018799,249.213455 402.647675,249.213455 400.363586,249.213455 
	C400.363586,261.575226 400.363586,273.593781 400.363586,285.551392 
	C402.993713,285.551392 405.255310,285.551392 407.988098,285.551392 
	C407.988098,281.366150 407.988098,277.423950 407.989258,272.487427 
M335.238892,276.785828 
	C333.626221,276.785828 332.013519,276.785828 330.454865,276.785828 
	C329.474030,285.683716 330.098297,286.285522 338.407837,284.576447 
	C337.309692,282.035248 341.331055,278.206421 335.238892,276.785828 
z"/>
<path fill="#E9E9E9" opacity="1.000000" stroke="none" 
	d="
M241.999832,235.777603 
	C220.717239,235.778473 199.934692,235.778473 178.936554,235.778473 
	C178.936554,240.203247 178.936554,244.144455 178.936554,248.597015 
	C184.585266,248.597015 190.161530,248.597015 196.100067,248.597015 
	C196.100067,251.301132 196.100067,253.511154 196.100067,256.158447 
	C190.543259,256.158447 184.950409,256.158447 178.628586,256.158447 
	C178.628586,261.976654 178.456268,267.409851 178.692291,272.825256 
	C178.837173,276.149658 181.057877,277.829254 184.379715,277.882782 
	C187.191177,277.928131 190.003967,277.892120 193.146973,277.892120 
	C193.146973,280.357574 193.146973,282.574036 193.146973,285.375641 
	C189.282333,285.375641 185.307434,285.869202 181.507004,285.265137 
	C175.088242,284.244934 171.183304,279.885651 170.683029,273.318970 
	C170.280075,268.029633 170.601440,262.685120 170.601440,256.768707 
	C165.393723,256.768707 160.332291,256.768707 154.908859,256.768707 
	C154.908859,253.940186 154.908859,251.699463 154.908859,248.904022 
	C159.847015,248.904022 164.911011,248.904022 170.315048,248.904022 
	C170.315048,244.438889 170.315048,240.512634 170.315048,236.019882 
	C148.881683,236.019882 127.341148,236.019882 105.463875,236.019882 
	C105.463875,233.221115 105.463875,230.973404 105.463875,228.314774 
	C206.039490,228.314774 306.762451,228.314774 407.815918,228.314774 
	C407.815918,230.500580 407.815918,232.895096 407.815918,235.776733 
	C352.711243,235.776733 297.605560,235.776733 241.999832,235.777603 
z"/>
<path fill="#ECECEC" opacity="1.000000" stroke="none" 
	d="
M348.145752,276.871460 
	C347.347473,267.392242 351.174042,262.998383 360.158783,262.790985 
	C365.815582,262.660400 371.476593,262.713928 377.135620,262.670441 
	C377.264832,262.669464 377.392731,262.495605 377.907532,262.122223 
	C378.266418,257.848755 375.866943,256.207855 371.745972,256.200409 
	C365.121979,256.188477 358.497955,256.197205 351.785583,256.197205 
	C351.785583,253.491043 351.785583,251.228424 351.785583,248.684235 
	C359.640228,248.684235 367.249115,248.423813 374.830841,248.765900 
	C380.994049,249.043961 385.653809,253.404846 385.976379,259.571899 
	C386.426422,268.174438 386.089783,276.818146 386.089783,286.660706 
	C382.620117,285.553131 379.891602,284.682129 376.159271,283.490723 
	C370.334015,287.082245 362.439331,286.998016 354.787567,284.221619 
	C352.112854,283.251099 350.396667,279.638916 348.145752,276.871460 
M356.929535,271.413635 
	C354.579468,274.221069 355.481628,276.954498 358.505402,277.579773 
	C364.342102,278.786713 370.434662,278.980560 375.721008,275.408936 
	C377.064392,274.501312 377.676239,272.510925 379.449402,269.718445 
	C371.054169,270.194397 364.351959,270.574371 356.929535,271.413635 
z"/>
<path fill="#EAEAEA" opacity="1.000000" stroke="none" 
	d="
M287.520874,258.660583 
	C283.676147,267.009521 280.052521,275.045929 276.347351,283.044556 
	C274.939423,286.084015 267.805511,287.078857 266.463837,284.259216 
	C260.995941,272.768005 255.823318,261.136353 250.479645,249.419968 
	C258.833069,248.164566 258.866974,248.149170 261.827759,254.673416 
	C264.772186,261.161682 267.638794,267.685211 271.022644,275.277130 
	C275.342499,265.990173 279.268707,257.549530 283.225189,249.043732 
	C285.979767,249.043732 288.614624,249.043732 291.827576,249.043732 
	C290.353577,252.368698 289.031555,255.350845 287.520874,258.660583 
z"/>
<path fill="#E6E5E5" opacity="1.000000" stroke="none" 
	d="
M215.626648,285.609436 
	C213.546387,285.616211 211.892136,285.616211 209.809052,285.616211 
	C209.809052,273.346191 209.809052,261.317108 209.809052,248.987839 
	C212.099319,248.987839 214.366165,248.987839 216.944748,248.987839 
	C217.208038,250.528030 217.472519,252.075119 217.752991,253.715805 
	C226.752747,247.929642 230.404266,247.248291 241.126312,249.347519 
	C241.126312,251.412048 241.126312,253.522293 241.126312,256.137146 
	C238.273438,256.137146 235.507614,256.134949 232.741791,256.137543 
	C222.982559,256.146820 217.579498,261.446930 217.610794,270.960846 
	C217.622864,274.626770 217.731903,278.299866 217.528992,281.954834 
	C217.460190,283.194275 216.568390,284.388000 215.626648,285.609436 
z"/>
<path fill="#ECECEC" opacity="1.000000" stroke="none" 
	d="
M105.700180,250.862732 
	C107.934288,249.667038 110.164314,248.891342 112.767677,247.985779 
	C113.237778,250.540070 113.547157,252.221130 113.988724,254.620407 
	C120.629654,247.102478 128.730118,248.056885 137.062836,249.019775 
	C137.062836,251.460495 137.062836,253.727402 137.062836,256.085815 
	C133.989975,256.085815 131.064224,256.015503 128.142899,256.098938 
	C119.063240,256.358185 113.820801,261.779083 113.864861,270.753235 
	C113.888374,275.542847 113.869034,280.332672 113.869034,285.458923 
	C111.050743,285.458923 108.639603,285.458923 105.696083,285.458923 
	C105.696083,274.122070 105.696083,262.702393 105.700180,250.862732 
z"/>
<path fill="#ECECEC" opacity="1.000000" stroke="none" 
	d="
M311.785400,249.732452 
	C311.878418,251.437546 311.878418,252.756012 311.878418,255.703583 
	C318.587189,246.245392 327.340393,249.075577 335.398224,248.780472 
	C337.389252,256.218262 337.251923,256.264618 329.627228,256.166992 
	C326.679962,256.129242 323.568634,256.327179 320.803497,257.240021 
	C314.915436,259.183777 311.989746,263.831909 312.019257,269.990021 
	C312.043793,275.118347 312.024261,280.246918 312.024261,285.631226 
	C309.333679,285.631226 307.056122,285.631226 304.366547,285.631226 
	C304.366547,273.552399 304.366547,261.337555 304.366547,248.692505 
	C306.823792,248.911636 309.258087,249.128738 311.785400,249.732452 
z"/>
<path fill="#EAEAEA" opacity="1.000000" stroke="none" 
	d="
M407.988678,272.984589 
	C407.988098,277.423950 407.988098,281.366150 407.988098,285.551392 
	C405.255310,285.551392 402.993713,285.551392 400.363586,285.551392 
	C400.363586,273.593781 400.363586,261.575226 400.363586,249.213455 
	C402.647675,249.213455 405.018799,249.213455 407.989258,249.213455 
	C407.989258,256.976593 407.989258,264.732025 407.988678,272.984589 
z"/>
<path fill="#E9E9E9" opacity="1.000000" stroke="none" 
	d="
M335.644836,276.766846 
	C341.331055,278.206421 337.309692,282.035248 338.407837,284.576447 
	C330.098297,286.285522 329.474030,285.683716 330.454865,276.785828 
	C332.013519,276.785828 333.626221,276.785828 335.644836,276.766846 
z"/>
<path fill="#363636" opacity="1.000000" stroke="none" 
	d="
M357.289642,271.183990 
	C364.351959,270.574371 371.054169,270.194397 379.449402,269.718445 
	C377.676239,272.510925 377.064392,274.501312 375.721008,275.408936 
	C370.434662,278.980560 364.342102,278.786713 358.505402,277.579773 
	C355.481628,276.954498 354.579468,274.221069 357.289642,271.183990 
z"/>
</svg>