<svg version="1.1" id="Layer_1" xmlns="http://www.w3.org/2000/svg" xmlns:xlink="http://www.w3.org/1999/xlink"
	 height="70"
   viewBox="50 150 250 250"
   width="172">
<path fill="none" opacity="1.000000" stroke="none" 
	d="
M466.000000,513.000000 
	C310.704437,513.000000 155.908875,513.000000 1.056660,513.000000 
	C1.056660,342.412750 1.056660,171.825500 1.056660,1.119114 
	C171.545532,1.119114 342.091187,1.119114 512.818420,1.119114 
	C512.818420,171.666504 512.818420,342.333252 512.818420,513.000000 
	C497.492096,513.000000 481.996063,513.000000 466.000000,513.000000 
M193.208054,285.270264 
	C193.208054,285.270264 193.541794,285.133179 194.192749,285.010345 
	C199.738754,281.869598 195.384949,280.032257 193.121277,277.959290 
	C193.121277,277.959290 193.067322,277.822296 192.836533,277.130066 
	C190.818512,276.518494 188.734177,275.231964 186.794952,275.422485 
	C181.097885,275.982178 181.192749,276.159058 181.717987,270.738312 
	C181.915253,268.702332 181.603333,266.465057 180.929886,264.525726 
	C179.037949,259.077393 180.208054,257.814484 185.930862,258.082581 
	C189.294479,258.240204 192.722473,257.024384 196.179581,256.147369 
	C196.179581,256.147369 196.463745,256.126923 197.030991,255.717575 
	C198.383682,253.388443 198.254272,250.701233 202.010300,249.271805 
	C206.465652,247.576248 210.075562,243.492798 213.799942,240.162460 
	C214.706268,239.352036 214.627167,237.439590 215.822205,235.860718 
	C217.214905,235.904099 218.607620,235.947464 220.156998,236.655640 
	C222.300262,240.225677 223.821915,239.337433 225.923584,235.811523 
	C284.495178,235.811523 343.066742,235.811523 401.638336,235.811523 
	C401.930756,236.285004 402.223175,236.758499 402.515594,237.231979 
	C400.033447,239.349960 397.551300,241.467926 395.291016,243.396591 
	C408.153046,247.173874 417.029633,241.555420 424.059113,231.589127 
	C413.193481,219.462173 405.676849,216.475983 394.155182,220.241104 
	C396.906494,222.778320 399.380005,225.059341 402.695007,228.116379 
	C302.892761,228.116379 204.083908,228.116379 105.488739,228.116379 
	C105.488739,231.025787 105.488739,233.266571 105.488739,235.883774 
	C127.278412,235.883774 148.707382,235.883774 170.300110,235.883774 
	C170.300110,240.316238 170.300110,244.357376 170.300110,248.946091 
	C164.884674,248.946091 159.826401,248.946091 154.928131,248.946091 
	C154.928131,251.754349 154.928131,253.986603 154.928131,256.624908 
	C160.245407,256.624908 165.176147,256.624908 170.375000,256.624908 
	C170.375000,261.153503 170.376190,265.266937 170.374741,269.380402 
	C170.371552,278.403168 172.729599,281.970825 181.215439,285.932892 
	C182.146179,285.946289 183.076935,285.959686 184.653961,285.799957 
	C185.095108,285.844604 185.536270,285.889252 186.563858,286.369995 
	C188.755783,286.121521 190.947708,285.873047 193.208054,285.270264 
M378.096619,283.002838 
	C379.179291,288.159576 383.102661,284.741547 386.033630,285.970825 
	C386.033630,276.721344 386.415558,267.910431 385.900604,259.152283 
	C385.552124,253.225403 380.864502,249.043732 374.903839,248.776581 
	C367.314178,248.436386 359.697693,248.694153 351.809875,248.694153 
	C351.809875,251.177948 351.809875,253.445953 351.809875,256.198486 
	C358.430084,256.198486 365.052216,256.210266 371.674255,256.194153 
	C375.814026,256.184082 378.176361,257.835297 377.926727,262.838837 
	C371.295685,262.838837 365.008453,262.677460 358.733459,262.885101 
	C352.702179,263.084717 348.597046,266.708801 347.882385,271.960999 
	C347.122894,277.542694 349.963287,283.202606 355.351227,284.613007 
	C362.950500,286.602325 370.740204,287.309875 378.096619,283.002838 
M284.221222,265.866699 
	C286.713623,260.374695 289.206024,254.882721 291.793396,249.181549 
	C283.379974,248.642731 283.335541,248.621994 280.099182,255.558502 
	C277.186615,261.800964 274.386108,268.095673 271.088135,275.353363 
	C267.743011,267.884064 264.883301,261.409882 261.948761,254.969788 
	C258.709991,247.862045 258.680115,247.875656 250.498245,249.557709 
	C255.521484,260.482086 260.630371,271.266724 265.403229,282.198029 
	C266.620422,284.985779 268.085846,285.726013 270.980499,285.748352 
	C274.041351,285.771973 275.775909,285.070984 276.961639,282.025299 
	C279.009735,276.764771 281.579346,271.707336 284.221222,265.866699 
M222.135468,259.472595 
	C228.366135,257.913666 234.596802,256.354736 241.110352,254.725037 
	C241.110352,253.476364 241.110352,251.376373 241.110352,249.323700 
	C230.170700,247.286209 226.593933,247.958405 217.758926,253.733017 
	C217.474533,252.090790 217.209167,250.558395 216.962952,249.136658 
	C214.294769,249.136658 211.924469,249.136658 209.732162,249.136658 
	C209.732162,261.479279 209.732162,273.373322 209.732162,285.278687 
	C212.485855,285.278687 214.878967,285.278687 217.611511,285.278687 
	C217.611511,279.990631 217.892456,275.016296 217.525558,270.090210 
	C217.213470,265.899933 218.301071,262.601929 222.135468,259.472595 
M113.870003,271.628296 
	C113.746284,259.204895 117.905838,256.406799 136.968445,256.230286 
	C136.968445,253.834381 136.968445,251.438583 136.968445,248.620529 
	C132.723785,248.620529 128.630539,248.004822 124.828278,248.792984 
	C120.993935,249.587814 117.448448,251.776154 113.650383,253.408127 
	C113.493668,252.117432 113.302933,250.546539 113.123878,249.071869 
	C110.474228,249.071869 108.220169,249.071869 105.991310,249.071869 
	C105.991310,261.433472 105.991310,273.503265 105.991310,285.413788 
	C108.736290,285.413788 111.142113,285.413788 113.870293,285.413788 
	C113.870293,280.879028 113.870293,276.732544 113.870003,271.628296 
M327.482910,256.074982 
	C337.216919,256.301331 337.216919,256.301331 335.550995,249.071381 
	C322.098480,247.821289 320.714203,248.119370 312.112488,254.231018 
	C311.951660,252.400620 311.802887,250.707870 311.651917,248.989838 
	C308.921417,248.989838 306.626923,248.989838 304.383759,248.989838 
	C304.383759,261.367188 304.383759,273.570251 304.383759,285.619751 
	C307.078705,285.619751 309.350952,285.619751 312.034821,285.619751 
	C312.034821,280.722534 312.045929,276.092743 312.032501,271.463013 
	C312.004303,261.746796 316.604828,256.894989 327.482910,256.074982 
M400.032166,255.584854 
	C400.032166,265.622406 400.032166,275.659943 400.032166,285.507660 
	C403.090942,285.507660 405.351196,285.507660 407.654175,285.507660 
	C407.654175,273.172882 407.654175,261.145355 407.654175,249.070984 
	C405.042084,249.070984 402.775421,249.070984 400.033630,249.070984 
	C400.033630,251.037918 400.033630,252.824875 400.032166,255.584854 
M335.254242,285.287781 
	C341.460571,284.316376 337.593170,280.005402 338.477478,277.057373 
	C335.417389,277.057373 332.875885,277.057373 329.895386,277.057373 
	C331.073792,280.353088 327.264587,285.683319 335.254242,285.287781 
z"/>
<path fill="#E9E9E9" opacity="1.000000" stroke="none" 
	d="
M220.000320,235.990845 
	C218.607620,235.947464 217.214905,235.904099 214.951431,235.851929 
	C203.264252,235.908859 192.447830,235.974579 181.371033,235.955048 
	C180.752396,235.918793 180.394135,235.967789 179.766876,235.948257 
	C179.320679,237.257568 179.143509,238.635422 178.886490,240.421875 
	C178.853867,242.212936 178.901093,243.595383 178.841156,245.297501 
	C178.327850,247.981476 179.247177,248.851685 181.697495,248.768463 
	C186.457001,248.606796 191.225906,248.721161 196.463745,248.721161 
	C196.463745,251.576004 196.463745,253.851471 196.463745,256.126923 
	C196.463745,256.126923 196.179581,256.147369 195.675110,256.281036 
	C189.783081,256.414703 184.395538,256.414703 178.794067,256.414703 
	C178.677032,259.047577 178.569366,261.165955 178.490845,263.285370 
	C177.948288,277.929840 178.281036,278.259796 193.067322,277.822296 
	C193.067322,277.822296 193.121277,277.959290 193.296448,278.371948 
	C193.495010,280.900787 193.518402,283.016998 193.541794,285.133179 
	C193.541794,285.133179 193.208054,285.270264 192.762421,285.457703 
	C190.203659,285.741394 188.090546,285.837677 185.977417,285.933929 
	C185.536270,285.889252 185.095108,285.844604 184.043549,285.771362 
	C182.616730,285.637787 181.800339,285.532837 180.983932,285.427856 
	C172.729599,281.970825 170.371552,278.403168 170.374741,269.380402 
	C170.376190,265.266937 170.375000,261.153503 170.375000,256.624908 
	C165.176147,256.624908 160.245407,256.624908 154.928131,256.624908 
	C154.928131,253.986603 154.928131,251.754349 154.928131,248.946091 
	C159.826401,248.946091 164.884674,248.946091 170.300110,248.946091 
	C170.300110,244.357376 170.300110,240.316238 170.300110,235.883774 
	C148.707382,235.883774 127.278412,235.883774 105.488739,235.883774 
	C105.488739,233.266571 105.488739,231.025787 105.488739,228.116379 
	C204.083908,228.116379 302.892761,228.116379 402.695007,228.116379 
	C399.380005,225.059341 396.906494,222.778320 394.155182,220.241104 
	C405.676849,216.475983 413.193481,219.462173 424.059113,231.589127 
	C417.029633,241.555420 408.153046,247.173874 395.291016,243.396591 
	C397.551300,241.467926 400.033447,239.349960 402.515594,237.231979 
	C402.223175,236.758499 401.930756,236.285004 401.638336,235.811523 
	C343.066742,235.811523 284.495178,235.811523 225.051544,235.803894 
	C222.786438,235.861130 221.393372,235.925980 220.000320,235.990845 
z"/>
<path fill="#ECECEC" opacity="1.000000" stroke="none" 
	d="
M377.937134,282.664734 
	C370.740204,287.309875 362.950500,286.602325 355.351227,284.613007 
	C349.963287,283.202606 347.122894,277.542694 347.882385,271.960999 
	C348.597046,266.708801 352.702179,263.084717 358.733459,262.885101 
	C365.008453,262.677460 371.295685,262.838837 377.926727,262.838837 
	C378.176361,257.835297 375.814026,256.184082 371.674255,256.194153 
	C365.052216,256.210266 358.430084,256.198486 351.809875,256.198486 
	C351.809875,253.445953 351.809875,251.177948 351.809875,248.694153 
	C359.697693,248.694153 367.314178,248.436386 374.903839,248.776581 
	C380.864502,249.043732 385.552124,253.225403 385.900604,259.152283 
	C386.415558,267.910431 386.033630,276.721344 386.033630,285.970825 
	C383.102661,284.741547 379.179291,288.159576 377.937134,282.664734 
M359.107361,277.935974 
	C364.287170,277.339142 369.545654,277.090179 374.601776,275.946594 
	C376.250244,275.573730 377.371124,272.868103 379.568573,270.224487 
	C371.903076,270.224487 366.112885,270.045929 360.347412,270.344788 
	C358.827271,270.423615 356.369720,271.785950 356.159546,272.901276 
	C355.892670,274.317719 357.477264,276.082977 359.107361,277.935974 
z"/>
<path fill="#EAEAEA" opacity="1.000000" stroke="none" 
	d="
M284.075684,266.215698 
	C281.579346,271.707336 279.009735,276.764771 276.961639,282.025299 
	C275.775909,285.070984 274.041351,285.771973 270.980499,285.748352 
	C268.085846,285.726013 266.620422,284.985779 265.403229,282.198029 
	C260.630371,271.266724 255.521484,260.482086 250.498245,249.557709 
	C258.680115,247.875656 258.709991,247.862045 261.948761,254.969788 
	C264.883301,261.409882 267.743011,267.884064 271.088135,275.353363 
	C274.386108,268.095673 277.186615,261.800964 280.099182,255.558502 
	C283.335541,248.621994 283.379974,248.642731 291.793396,249.181549 
	C289.206024,254.882721 286.713623,260.374695 284.075684,266.215698 
z"/>
<path fill="#E6E5E5" opacity="1.000000" stroke="none" 
	d="
M221.840698,259.732086 
	C218.301071,262.601929 217.213470,265.899933 217.525558,270.090210 
	C217.892456,275.016296 217.611511,279.990631 217.611511,285.278687 
	C214.878967,285.278687 212.485855,285.278687 209.732162,285.278687 
	C209.732162,273.373322 209.732162,261.479279 209.732162,249.136658 
	C211.924469,249.136658 214.294769,249.136658 216.962952,249.136658 
	C217.209167,250.558395 217.474533,252.090790 217.758926,253.733017 
	C226.593933,247.958405 230.170700,247.286209 241.110352,249.323700 
	C241.110352,251.376373 241.110352,253.476364 241.110352,254.725037 
	C234.596802,256.354736 228.366135,257.913666 221.840698,259.732086 
z"/>
<path fill="#ECECEC" opacity="1.000000" stroke="none" 
	d="
M113.870148,272.107178 
	C113.870293,276.732544 113.870293,280.879028 113.870293,285.413788 
	C111.142113,285.413788 108.736290,285.413788 105.991310,285.413788 
	C105.991310,273.503265 105.991310,261.433472 105.991310,249.071869 
	C108.220169,249.071869 110.474228,249.071869 113.123878,249.071869 
	C113.302933,250.546539 113.493668,252.117432 113.650383,253.408127 
	C117.448448,251.776154 120.993935,249.587814 124.828278,248.792984 
	C128.630539,248.004822 132.723785,248.620529 136.968445,248.620529 
	C136.968445,251.438583 136.968445,253.834381 136.968445,256.230286 
	C117.905838,256.406799 113.746284,259.204895 113.870148,272.107178 
z"/>
<path fill="#ECECEC" opacity="1.000000" stroke="none" 
	d="
M327.064209,256.073425 
	C316.604828,256.894989 312.004303,261.746796 312.032501,271.463013 
	C312.045929,276.092743 312.034821,280.722534 312.034821,285.619751 
	C309.350952,285.619751 307.078705,285.619751 304.383759,285.619751 
	C304.383759,273.570251 304.383759,261.367188 304.383759,248.989838 
	C306.626923,248.989838 308.921417,248.989838 311.651917,248.989838 
	C311.802887,250.707870 311.951660,252.400620 312.112488,254.231018 
	C320.714203,248.119370 322.098480,247.821289 335.550995,249.071381 
	C337.216919,256.301331 337.216919,256.301331 327.064209,256.073425 
z"/>
<path fill="#3B3B3B" opacity="1.000000" stroke="none" 
	d="
M181.631424,236.040298 
	C192.447830,235.974579 203.264252,235.908859 214.540909,235.938507 
	C214.627167,237.439590 214.706268,239.352036 213.799942,240.162460 
	C210.075562,243.492798 206.465652,247.576248 202.010300,249.271805 
	C198.254272,250.701233 198.383682,253.388443 196.747375,255.922241 
	C196.463745,253.851471 196.463745,251.576004 196.463745,248.721161 
	C191.225906,248.721161 186.457001,248.606796 181.697495,248.768463 
	C179.247177,248.851685 178.327850,247.981476 179.132294,245.550064 
	C185.487396,246.280533 191.444214,247.078094 197.401047,247.875671 
	C197.514481,246.971817 197.627930,246.067947 197.741364,245.164093 
	C195.214706,244.845688 192.618103,243.992737 190.174911,244.312347 
	C183.696289,245.159866 183.719330,245.362213 182.236771,238.977493 
	C182.010727,238.004059 181.832031,237.019638 181.631424,236.040298 
z"/>
<path fill="#EAEAEA" opacity="1.000000" stroke="none" 
	d="
M400.032898,255.098358 
	C400.033630,252.824875 400.033630,251.037918 400.033630,249.070984 
	C402.775421,249.070984 405.042084,249.070984 407.654175,249.070984 
	C407.654175,261.145355 407.654175,273.172882 407.654175,285.507660 
	C405.351196,285.507660 403.090942,285.507660 400.032166,285.507660 
	C400.032166,275.659943 400.032166,265.622406 400.032898,255.098358 
z"/>
<path fill="#3B3B3B" opacity="1.000000" stroke="none" 
	d="
M192.951935,277.476196 
	C178.281036,278.259796 177.948288,277.929840 178.490845,263.285370 
	C178.569366,261.165955 178.677032,259.047577 178.794067,256.414703 
	C184.395538,256.414703 189.783081,256.414703 195.646057,256.420502 
	C192.722473,257.024384 189.294479,258.240204 185.930862,258.082581 
	C180.208054,257.814484 179.037949,259.077393 180.929886,264.525726 
	C181.603333,266.465057 181.915253,268.702332 181.717987,270.738312 
	C181.192749,276.159058 181.097885,275.982178 186.794952,275.422485 
	C188.734177,275.231964 190.818512,276.518494 192.951935,277.476196 
z"/>
<path fill="#E6E5E5" opacity="1.000000" stroke="none" 
	d="
M334.854309,285.290161 
	C327.264587,285.683319 331.073792,280.353088 329.895386,277.057373 
	C332.875885,277.057373 335.417389,277.057373 338.477478,277.057373 
	C337.593170,280.005402 341.460571,284.316376 334.854309,285.290161 
z"/>
<path fill="#3B3B3B" opacity="1.000000" stroke="none" 
	d="
M193.867279,285.071777 
	C193.518402,283.016998 193.495010,280.900787 193.364243,278.343262 
	C195.384949,280.032257 199.738754,281.869598 193.867279,285.071777 
z"/>
<path fill="#3B3B3B" opacity="1.000000" stroke="none" 
	d="
M186.270630,286.151978 
	C188.090546,285.837677 190.203659,285.741394 192.728210,285.634827 
	C190.947708,285.873047 188.755783,286.121521 186.270630,286.151978 
z"/>
<path fill="#3B3B3B" opacity="1.000000" stroke="none" 
	d="
M220.078659,236.323242 
	C221.393372,235.925980 222.786438,235.861130 224.589417,235.888367 
	C223.821915,239.337433 222.300262,240.225677 220.078659,236.323242 
z"/>
<path fill="#3B3B3B" opacity="1.000000" stroke="none" 
	d="
M181.099686,285.680359 
	C181.800339,285.532837 182.616730,285.637787 183.720398,285.857910 
	C183.076935,285.959686 182.146179,285.946289 181.099686,285.680359 
z"/>
<path fill="#363636" opacity="1.000000" stroke="none" 
	d="
M181.371033,235.955048 
	C181.832031,237.019638 182.010727,238.004059 182.236771,238.977493 
	C183.719330,245.362213 183.696289,245.159866 190.174911,244.312347 
	C192.618103,243.992737 195.214706,244.845688 197.741364,245.164093 
	C197.627930,246.067947 197.514481,246.971817 197.401047,247.875671 
	C191.444214,247.078094 185.487396,246.280533 179.239441,245.230408 
	C178.901093,243.595383 178.853867,242.212936 179.117111,240.069580 
	C179.630356,238.211380 179.833130,237.114090 180.035889,236.016800 
	C180.394135,235.967789 180.752396,235.918793 181.371033,235.955048 
z"/>
<path fill="#3B3B3B" opacity="1.000000" stroke="none" 
	d="
M179.766876,235.948257 
	C179.833130,237.114090 179.630356,238.211380 179.196960,239.660980 
	C179.143509,238.635422 179.320679,237.257568 179.766876,235.948257 
z"/>
<path fill="#3B3B3B" opacity="1.000000" stroke="none" 
	d="
M358.685425,277.816895 
	C357.477264,276.082977 355.892670,274.317719 356.159546,272.901276 
	C356.369720,271.785950 358.827271,270.423615 360.347412,270.344788 
	C366.112885,270.045929 371.903076,270.224487 379.568573,270.224487 
	C377.371124,272.868103 376.250244,275.573730 374.601776,275.946594 
	C369.545654,277.090179 364.287170,277.339142 358.685425,277.816895 
z"/>
</svg>